<?xml version="1.0" standalone="no"?>
<!DOCTYPE svg PUBLIC "-//W3C//DTD SVG 20010904//EN"
 "http://www.w3.org/TR/2001/REC-SVG-20010904/DTD/svg10.dtd">
<svg version="1.0" xmlns="http://www.w3.org/2000/svg"
 width="512.000000pt" height="512.000000pt" viewBox="0 0 512.000000 512.000000"
 preserveAspectRatio="xMidYMid meet">

<g transform="translate(0.000000,512.000000) scale(0.100000,-0.100000)"
fill="#000000" stroke="none">
<path d="M1001 4464 c-169 -45 -301 -180 -346 -351 -23 -86 -23 -3020 0 -3106
45 -173 178 -307 350 -352 52 -13 244 -15 1555 -15 1311 0 1503 2 1555 15 172
45 305 179 350 352 23 86 23 3020 0 3106 -45 173 -178 307 -350 352 -87 22
-3030 22 -3114 -1z m3129 -172 c72 -35 114 -75 151 -144 l34 -63 3 -202 4
-203 -1762 0 -1762 0 4 203 c3 190 5 205 28 252 42 86 125 154 215 176 17 4
707 6 1535 6 l1505 -2 45 -23z m188 -2014 l-3 -1243 -27 -51 c-40 -76 -70
-107 -140 -145 l-63 -34 -1525 0 -1525 0 -63 34 c-69 37 -109 79 -144 151
l-23 45 -3 1243 -2 1242 1760 0 1760 0 -2 -1242z"/>
<path d="M2751 3103 c-17 -14 -76 -199 -266 -833 -135 -448 -245 -825 -245
-838 0 -33 43 -72 78 -72 63 0 57 -17 317 850 135 448 245 825 245 838 0 57
-83 92 -129 55z"/>
<path d="M1573 2567 c-270 -270 -293 -295 -293 -327 0 -31 22 -56 278 -313
152 -154 290 -285 306 -292 62 -27 128 32 104 95 -5 14 -118 134 -251 267
l-242 243 253 253 c226 227 252 256 252 285 0 44 -38 82 -82 82 -29 0 -61 -28
-325 -293z"/>
<path d="M3189 2842 c-37 -19 -51 -53 -37 -92 5 -14 118 -134 251 -267 l242
-243 -253 -253 c-239 -239 -252 -255 -252 -290 0 -49 28 -77 77 -77 36 0 51
14 330 293 270 270 293 295 293 327 0 31 -22 56 -282 317 -155 155 -294 287
-309 292 -20 7 -36 5 -60 -7z"/>
</g>
</svg>
