<?xml version="1.0" encoding="UTF-8" standalone="no" ?>
<!DOCTYPE svg PUBLIC "-//W3C//DTD SVG 1.1//EN" "http://www.w3.org/Graphics/SVG/1.1/DTD/svg11.dtd">
<svg xmlns="http://www.w3.org/2000/svg" xmlns:xlink="http://www.w3.org/1999/xlink" version="1.1" width="512" height="512" viewBox="0 0 512 512" xml:space="preserve">
<desc>Created with Fabric.js 5.2.4</desc>
<defs>
</defs>
<g transform="matrix(1 0 0 1 256 256)" id="3fd11f8e-3f16-4d83-8221-17cf2852da52"  >
<rect style="stroke: none; stroke-width: 1; stroke-dasharray: none; stroke-linecap: butt; stroke-dashoffset: 0; stroke-linejoin: miter; stroke-miterlimit: 4; fill: rgb(255,255,255); fill-rule: nonzero; opacity: 1; visibility: hidden;" vector-effect="non-scaling-stroke"  x="-256" y="-256" rx="0" ry="0" width="512" height="512" />
</g>
<g transform="matrix(Infinity NaN NaN Infinity 0 0)" id="cde08a0f-6ad2-45fe-8e2b-f4e01477b83d"  >
</g>
<g transform="matrix(NaN NaN NaN NaN 0 0)"  >
<g style=""   >
</g>
</g>
<g transform="matrix(0.13 0 0 -0.13 138.77 137.18)"  >
<path style="stroke: rgb(0,0,0); stroke-width: 12; stroke-dasharray: none; stroke-linecap: butt; stroke-dashoffset: 0; stroke-linejoin: miter; stroke-miterlimit: 4; fill: rgb(0,0,0); fill-rule: nonzero; opacity: 1;" vector-effect="non-scaling-stroke"  transform=" translate(-1638.16, -3491.29)" d="M 1125 4226 C 1032 4196 958 4131 918 4045 C 895 3995 895 3991 892 3522 C 890 3125 892 3040 904 2990 C 931 2884 986 2820 1090 2771 L 1145 2745 L 1635 2745 C 2083 2745 2129 2747 2177 2763 C 2247 2787 2322 2856 2357 2928 L 2385 2985 L 2385 3490 L 2385 3995 L 2359 4051 C 2327 4119 2277 4171 2207 4208 L 2155 4235 L 1660 4237 C 1279 4239 1156 4236 1125 4226 z M 2134 4066 C 2152 4058 2180 4035 2196 4014 L 2225 3977 L 2225 3494 C 2225 3020 2225 3011 2204 2983 C 2193 2968 2168 2945 2150 2933 L 2117 2910 L 1640 2910 L 1163 2910 L 1130 2933 C 1112 2945 1087 2968 1076 2983 C 1056 3011 1055 3023 1052 3468 C 1049 3945 1051 3973 1092 4025 C 1134 4079 1137 4079 1638 4080 C 2012 4080 2107 4077 2134 4066 z" stroke-linecap="round" />
</g>
<g transform="matrix(0.13 0 0 -0.13 384.73 137.27)"  >
<path style="stroke: rgb(0,0,0); stroke-width: 13; stroke-dasharray: none; stroke-linecap: butt; stroke-dashoffset: 0; stroke-linejoin: miter; stroke-miterlimit: 4; fill: rgb(0,0,0); fill-rule: nonzero; opacity: 1;" vector-effect="non-scaling-stroke"  transform=" translate(-3479.08, -3494.38)" d="M 3325 4225 C 2998 4150 2768 3887 2735 3550 C 2712 3319 2833 3048 3023 2904 C 3352 2655 3829 2717 4069 3038 C 4250 3280 4276 3577 4139 3840 C 4048 4015 3900 4140 3705 4206 C 3607 4239 3424 4248 3325 4225 z M 3602 4065 C 3803 4023 3969 3874 4036 3675 C 4074 3562 4075 3418 4037 3312 C 4001 3208 3955 3137 3878 3066 C 3765 2960 3637 2910 3480 2910 C 3315 2910 3188 2963 3069 3080 C 2656 3488 3033 4186 3602 4065 z" stroke-linecap="round" />
</g>
<g transform="matrix(0.13 0 0 -0.13 139.53 386.47)"  >
<path style="stroke: rgb(0,0,0); stroke-width: 13; stroke-dasharray: none; stroke-linecap: butt; stroke-dashoffset: 0; stroke-linejoin: miter; stroke-miterlimit: 4; fill: rgb(0,0,0); fill-rule: nonzero; opacity: 1;" vector-effect="non-scaling-stroke"  transform=" translate(-1640.15, -1625.38)" d="M 1460 2349 C 1214 2285 1025 2115 939 1880 C 783 1451 1045 987 1497 894 C 1590 874 1743 879 1835 905 C 2190 1002 2430 1360 2380 1719 C 2328 2099 2016 2372 1636 2369 C 1570 2369 1509 2362 1460 2349 z M 1785 2195 C 1944 2153 2094 2033 2164 1890 C 2251 1712 2247 1528 2153 1348 C 2012 1078 1666 965 1388 1099 C 1078 1247 962 1633 1137 1929 C 1209 2050 1353 2158 1490 2194 C 1564 2214 1711 2214 1785 2195 z" stroke-linecap="round" />
</g>
<g transform="matrix(0.13 0 0 -0.13 384.35 386.07)"  >
<path style="stroke: rgb(0,0,0); stroke-width: 12; stroke-dasharray: none; stroke-linecap: butt; stroke-dashoffset: 0; stroke-linejoin: miter; stroke-miterlimit: 4; fill: rgb(0,0,0); fill-rule: nonzero; opacity: 1;" vector-effect="non-scaling-stroke"  transform=" translate(-3480, -1624.63)" d="M 2931 2348 C 2865 2323 2795 2256 2760 2185 L 2735 2135 L 2735 1625 L 2735 1115 L 2760 1065 C 2795 992 2865 927 2933 901 C 2989 881 3004 880 3480 880 C 3939 880 3973 881 4020 899 C 4098 929 4154 980 4192 1058 L 4225 1125 L 4225 1625 L 4225 2125 L 4192 2192 C 4154 2270 4098 2321 4020 2351 C 3973 2369 3940 2370 3477 2369 C 3003 2369 2983 2368 2931 2348 z M 3980 2195 C 3996 2187 4022 2163 4037 2143 L 4065 2107 L 4068 1641 L 4071 1175 L 4048 1131 C 4035 1106 4012 1077 3997 1066 C 3969 1045 3957 1045 3480 1045 C 3002 1045 2991 1045 2964 1066 C 2949 1077 2927 1099 2916 1114 C 2896 1141 2895 1155 2892 1598 C 2890 1849 2892 2070 2895 2088 C 2902 2124 2952 2187 2984 2200 C 2996 2205 3218 2209 3478 2209 C 3880 2210 3955 2208 3980 2195 z" stroke-linecap="round" />
</g>
</svg>